<svg width="195" height="124" viewBox="0 0 195 124" fill="none" xmlns="http://www.w3.org/2000/svg">
<path d="M0 7.75C0 3.46979 3.49218 0 7.8 0H187.2C191.508 0 195 3.46979 195 7.75V116.25C195 120.53 191.508 124 187.2 124H7.8C3.49218 124 0 120.53 0 116.25V7.75Z" fill="#FF5F00"/>
<path d="M0 14.0469H195V41.1719H0V14.0469Z" fill="#191F29"/>
<path fill-rule="evenodd" clip-rule="evenodd" d="M145.528 52.3613C146.081 52.3613 146.53 51.9182 146.53 51.3695C146.529 50.8236 146.079 50.375 145.528 50.375C144.976 50.375 144.527 50.8236 144.527 51.3695C144.527 51.9182 144.976 52.3613 145.528 52.3613ZM148.393 56.4698H142.663C142.109 56.4698 141.661 56.9087 141.661 57.4588C141.661 58.0048 142.11 58.4451 142.663 58.4451H148.395C148.946 58.4451 149.397 58.0048 149.397 57.4588C149.396 56.9087 148.945 56.4698 148.393 56.4698ZM144.228 59.4341H146.83C147.381 59.4341 147.828 59.8813 147.827 60.4259C147.827 60.9719 147.38 61.4163 146.83 61.4163L146.827 61.4109H144.225C143.677 61.4109 143.229 60.965 143.229 60.4191C143.229 59.8731 143.679 59.4341 144.228 59.4341ZM146.83 53.4478H144.228C143.679 53.4478 143.229 53.8867 143.229 54.4313C143.229 54.98 143.677 55.4231 144.225 55.4231H146.827L146.83 55.4245C147.38 55.4245 147.827 54.9828 147.827 54.4368C147.828 53.8922 147.381 53.4478 146.83 53.4478ZM144.527 63.4287C144.527 62.8814 144.976 62.4342 145.528 62.4342C146.079 62.4342 146.529 62.8814 146.53 63.4287C146.53 63.9774 146.081 64.4219 145.528 64.4219C144.977 64.4219 144.527 63.9774 144.527 63.4287Z" fill="white"/>
<path fill-rule="evenodd" clip-rule="evenodd" d="M166.477 59.738C166.872 59.738 167.283 59.657 167.658 59.5178C167.759 59.4822 167.877 59.5567 167.877 59.6603V61.3114C167.877 61.373 167.828 61.4312 167.766 61.4539C167.303 61.6158 166.794 61.7064 166.229 61.7064C164.242 61.7064 162.536 60.3855 162.536 57.5428C162.549 54.7714 164.177 53.2627 166.249 53.2627C166.748 53.2627 167.234 53.3663 167.707 53.5411C167.766 53.5638 167.818 53.6221 167.818 53.6836V55.2797C167.818 55.3866 167.697 55.461 167.596 55.4222C167.306 55.3089 166.95 55.2506 166.533 55.2506C165.423 55.2506 164.64 56.0276 164.64 57.5461C164.64 59.0063 165.355 59.738 166.477 59.738ZM160.781 55.4513C161.342 55.4513 161.798 54.9981 161.798 54.4412C161.798 53.8811 161.342 53.4311 160.781 53.4311C160.216 53.4311 159.759 53.8843 159.759 54.4412C159.759 54.9981 160.216 55.4513 160.781 55.4513ZM180.197 59.6473H177.662V58.4073H180.18C180.265 58.4073 180.347 58.3393 180.347 58.2551V56.7431C180.347 56.659 180.265 56.5748 180.18 56.5748H177.662V55.3315H180.197C180.282 55.3315 180.347 55.27 180.347 55.1858V53.5832C180.347 53.499 180.282 53.4375 180.197 53.4375H175.769C175.684 53.4375 175.632 53.499 175.632 53.5832V61.3989C175.632 61.483 175.684 61.5478 175.769 61.5478H180.197C180.282 61.5478 180.347 61.483 180.347 61.3989V59.8124C180.347 59.7282 180.282 59.6473 180.197 59.6473ZM156.983 53.4343H158.738C158.826 53.4343 158.869 53.4958 158.872 53.58V61.3924C158.872 61.4766 158.829 61.5413 158.741 61.5413H157.205C157.09 61.5413 156.993 61.483 156.94 61.3827L154.601 56.9536C154.732 57.64 154.813 58.3231 154.813 59.0775V61.3956C154.813 61.4798 154.718 61.5446 154.634 61.5446H152.917C152.829 61.5446 152.784 61.4798 152.784 61.3956V53.58C152.784 53.4958 152.833 53.4343 152.917 53.4343H154.412C154.526 53.4343 154.634 53.4958 154.686 53.5962L157.022 58.022C156.901 57.3356 156.839 56.6428 156.839 55.8981V53.58C156.839 53.4958 156.898 53.4343 156.983 53.4343ZM161.59 56.5133H159.965C159.88 56.5133 159.821 56.5651 159.821 56.6493V61.3956C159.821 61.4798 159.883 61.5446 159.965 61.5446H161.59C161.674 61.5446 161.733 61.4798 161.733 61.3956V56.6493C161.733 56.5651 161.674 56.5133 161.59 56.5133ZM186.017 59.6473H183.45V53.58C183.45 53.4958 183.391 53.4343 183.306 53.4343H181.593C181.505 53.4343 181.42 53.4958 181.42 53.58V61.3956C181.42 61.4798 181.505 61.5446 181.593 61.5446H186.021C186.105 61.5446 186.197 61.4798 186.197 61.3956V59.8059C186.194 59.7218 186.102 59.6473 186.017 59.6473ZM173.022 57.4975L175.038 61.3276C175.091 61.428 175.016 61.5446 174.898 61.5446H173.198C173.14 61.5446 173.081 61.5219 173.058 61.4668L171.456 58.4656H170.738V61.3956C170.738 61.4798 170.67 61.5446 170.585 61.5446H168.869C168.784 61.5446 168.709 61.4798 168.709 61.3956V53.58C168.709 53.4958 168.784 53.4343 168.869 53.4343H170.585C170.666 53.4343 170.738 53.4958 170.738 53.58V56.51H171.459L173.078 53.4634C173.094 53.4343 173.123 53.4343 173.156 53.4343H174.895C175.009 53.4343 175.084 53.5476 175.035 53.648L173.022 57.4975Z" fill="white"/>
<path d="M139.425 85.7344C139.425 77.4415 146.191 70.7188 154.537 70.7188H170.137C178.484 70.7188 185.25 77.4415 185.25 85.7344C185.25 94.0273 178.484 100.75 170.137 100.75H154.537C146.191 100.75 139.425 94.0273 139.425 85.7344Z" fill="#E2E2E2"/>
<path d="M7.80029 47.9531C7.80029 46.8831 8.67334 46.0156 9.75029 46.0156H122.85C123.927 46.0156 124.8 46.8831 124.8 47.9531V66.8438C124.8 67.9138 123.927 68.7813 122.85 68.7813H9.75029C8.67334 68.7813 7.80029 67.9138 7.80029 66.8438V47.9531Z" fill="#E2E2E2"/>
<path d="M15.6001 72.6553H17.5501V88.1553H15.6001V72.6553Z" fill="#191F29"/>
<path d="M38.0251 72.6553H39.9751V88.1553H38.0251V72.6553Z" fill="#191F29"/>
<path d="M60.4504 72.6553H62.4004V88.1553H60.4504V72.6553Z" fill="#191F29"/>
<path d="M23.8877 72.6553H25.8377V88.1553H23.8877V72.6553Z" fill="#191F29"/>
<path d="M46.3125 72.6553H48.2625V88.1553H46.3125V72.6553Z" fill="#191F29"/>
<path d="M68.7373 72.6553H70.6873V88.1553H68.7373V72.6553Z" fill="#191F29"/>
<path d="M18.0378 72.6553H19.9878V88.1553H18.0378V72.6553Z" fill="#191F29"/>
<path d="M40.4626 72.6553H42.4126V88.1553H40.4626V72.6553Z" fill="#191F29"/>
<path d="M62.8877 72.6553H64.8377V88.1553H62.8877V72.6553Z" fill="#191F29"/>
<path d="M26.3252 72.6553H28.2752V88.1553H26.3252V72.6553Z" fill="#191F29"/>
<path d="M48.75 72.6553H50.7V88.1553H48.75V72.6553Z" fill="#191F29"/>
<path d="M71.1753 72.6553H73.1253V88.1553H71.1753V72.6553Z" fill="#191F29"/>
<path d="M82.3877 72.6553H84.3377V88.1553H82.3877V72.6553Z" fill="#191F29"/>
<path d="M31.688 72.6553H33.638V88.1553H31.688V72.6553Z" fill="#191F29"/>
<path d="M54.1123 72.6553H56.0623V88.1553H54.1123V72.6553Z" fill="#191F29"/>
<path d="M76.5378 72.6553H78.4878V88.1553H76.5378V72.6553Z" fill="#191F29"/>
<path d="M87.7505 72.6553H89.7005V88.1553H87.7505V72.6553Z" fill="#191F29"/>
<path d="M20.9626 72.6553H21.9376V88.1553H20.9626V72.6553Z" fill="#191F29"/>
<path d="M43.3877 72.6553H44.3627V88.1553H43.3877V72.6553Z" fill="#191F29"/>
<path d="M65.813 72.6553H66.788V88.1553H65.813V72.6553Z" fill="#191F29"/>
<path d="M29.2505 72.6553H30.2255V88.1553H29.2505V72.6553Z" fill="#191F29"/>
<path d="M51.6753 72.6553H52.6503V88.1553H51.6753V72.6553Z" fill="#191F29"/>
<path d="M74.1003 72.6553H75.0753V88.1553H74.1003V72.6553Z" fill="#191F29"/>
<path d="M85.3125 72.6553H86.2875V88.1553H85.3125V72.6553Z" fill="#191F29"/>
<path d="M34.6128 72.6553H35.5878V88.1553H34.6128V72.6553Z" fill="#191F29"/>
<path d="M57.0378 72.6553H58.0128V88.1553H57.0378V72.6553Z" fill="#191F29"/>
<path d="M79.4626 72.6553H80.4376V88.1553H79.4626V72.6553Z" fill="#191F29"/>
<path d="M22.4253 72.6553H22.9128V88.1553H22.4253V72.6553Z" fill="#191F29"/>
<path d="M44.8503 72.6553H45.3378V88.1553H44.8503V72.6553Z" fill="#191F29"/>
<path d="M67.2751 72.6553H67.7626V88.1553H67.2751V72.6553Z" fill="#191F29"/>
<path d="M30.7126 72.6553H31.2001V88.1553H30.7126V72.6553Z" fill="#191F29"/>
<path d="M53.1377 72.6553H53.6252V88.1553H53.1377V72.6553Z" fill="#191F29"/>
<path d="M75.5625 72.6553H76.05V88.1553H75.5625V72.6553Z" fill="#191F29"/>
<path d="M86.7751 72.6553H87.2626V88.1553H86.7751V72.6553Z" fill="#191F29"/>
<path d="M36.0752 72.6553H36.5627V88.1553H36.0752V72.6553Z" fill="#191F29"/>
<path d="M58.5 72.6553H58.9875V88.1553H58.5V72.6553Z" fill="#191F29"/>
<path d="M80.9253 72.6553H81.4128V88.1553H80.9253V72.6553Z" fill="#191F29"/>
<path d="M18.3312 93.1154L20.0021 91H20.6012L18.6368 93.4657L20.6623 96H20.0592L18.3312 93.8159L16.595 96H16L18.0296 93.4657L16.0611 91H16.6602L18.3312 93.1154Z" fill="#191F29"/>
<path d="M23.4418 93.1154L25.1127 91H25.7118L23.7474 93.4657L25.7729 96H25.1698L23.4418 93.8159L21.7056 96H21.1106L23.1402 93.4657L21.1718 91H21.7708L23.4418 93.1154Z" fill="#191F29"/>
<path d="M28.5524 93.1154L30.2233 91H30.8224L28.8581 93.4657L30.8836 96H30.2804L28.5524 93.8159L26.8163 96H26.2212L28.2508 93.4657L26.2824 91H26.8815L28.5524 93.1154Z" fill="#191F29"/>
<path d="M35.2891 93.967H33.337V93.6202H35.2891V93.967Z" fill="#191F29"/>
<path d="M40.1104 93.1154L41.7813 91H42.3804L40.416 93.4657L42.4415 96H41.8384L40.1104 93.8159L38.3742 96H37.7792L39.8088 93.4657L37.8404 91H38.4394L40.1104 93.1154Z" fill="#191F29"/>
<path d="M45.221 93.1154L46.8919 91H47.491L45.5267 93.4657L47.5522 96H46.949L45.221 93.8159L43.4849 96H42.8898L44.9194 93.4657L42.951 91H43.5501L45.221 93.1154Z" fill="#191F29"/>
<path d="M50.3316 93.1154L52.0026 91H52.6017L50.6373 93.4657L52.6628 96H52.0596L50.3316 93.8159L48.5955 96H48.0005L50.03 93.4657L48.0616 91H48.6607L50.3316 93.1154Z" fill="#191F29"/>
<path d="M57.0684 93.967H55.1162V93.6202H57.0684V93.967Z" fill="#191F29"/>
<path d="M61.8896 93.1154L63.5605 91H64.1596L62.1953 93.4657L64.2208 96H63.6176L61.8896 93.8159L60.1535 96H59.5585L61.588 93.4657L59.6196 91H60.2187L61.8896 93.1154Z" fill="#191F29"/>
<path d="M67.0002 93.1154L68.6712 91H69.2703L67.3059 93.4657L69.3314 96H68.7282L67.0002 93.8159L65.2641 96H64.6691L66.6986 93.4657L64.7302 91H65.3293L67.0002 93.1154Z" fill="#191F29"/>
<path d="M72.1108 93.1154L73.7818 91H74.3809L72.4165 93.4657L74.442 96H73.8388L72.1108 93.8159L70.3747 96H69.7797L71.8093 93.4657L69.8408 91H70.4399L72.1108 93.1154Z" fill="#191F29"/>
<path d="M78.8476 93.967H76.8954V93.6202H78.8476V93.967Z" fill="#191F29"/>
<path d="M83.6688 93.1154L85.3398 91H85.9389L83.9745 93.4657L86 96H85.3968L83.6688 93.8159L81.9327 96H81.3377L83.3673 93.4657L81.3988 91H81.9979L83.6688 93.1154Z" fill="#191F29"/>
<path d="M108.663 56.8848L110.225 54.5537H110.785L108.949 57.2708L110.842 60.0635H110.278L108.663 57.6567L107.041 60.0635H106.485L108.382 57.2708L106.542 54.5537H107.102L108.663 56.8848Z" fill="#191F29"/>
<path d="M113.439 56.8848L115.001 54.5537H115.561L113.725 57.2708L115.618 60.0635H115.054L113.439 57.6567L111.817 60.0635H111.261L113.158 57.2708L111.318 54.5537H111.878L113.439 56.8848Z" fill="#191F29"/>
<path d="M118.215 56.8848L119.777 54.5537H120.337L118.501 57.2708L120.394 60.0635H119.83L118.215 57.6567L116.593 60.0635H116.037L117.933 57.2708L116.094 54.5537H116.654L118.215 56.8848Z" fill="#191F29"/>
<path fill-rule="evenodd" clip-rule="evenodd" d="M81.6939 51.598C81.6943 51.5985 81.6946 51.5989 81.6949 51.5991L81.6948 51.5991C81.6947 51.599 81.6945 51.5986 81.6939 51.598ZM80.4393 51.6981C80.0019 51.7191 79.5642 51.7456 79.1263 51.7753C76.5671 51.9486 72.6407 52.2799 70.2431 52.4949C69.7517 52.5389 69.2602 52.5829 68.7686 52.6268C61.9391 53.2377 55.098 53.8496 48.302 54.7247C48.3854 55.5191 48.441 56.3345 48.4399 57.1452C48.4393 57.6447 48.4171 58.1443 48.3663 58.6377C55.7561 57.3837 63.1254 55.9974 70.4197 54.29C72.7587 53.7424 76.794 52.7119 79.2515 52.0362C79.6493 51.9268 80.0456 51.8154 80.4393 51.6981ZM48.3041 59.1396C55.7477 57.8783 63.1765 56.4831 70.5315 54.7614C72.8771 54.2124 76.9185 53.1802 79.3815 52.5031C80.0461 52.3203 80.7122 52.1302 81.3719 51.9158C81.404 51.9054 81.4577 51.8942 81.5363 51.8795L81.5626 51.8745C81.6284 51.8623 81.7052 51.848 81.7735 51.8309C81.8393 51.8146 81.947 51.785 82.0256 51.7226C82.0701 51.6873 82.1355 51.6173 82.1434 51.5079C82.1512 51.4004 82.0983 51.3207 82.0582 51.2761C81.8769 51.0748 81.6221 51.0918 81.4678 51.1151C81.4038 51.1247 81.3361 51.1392 81.2778 51.1516C81.2613 51.1551 81.2456 51.1585 81.231 51.1615C81.1573 51.1767 81.102 51.186 81.057 51.1876C80.401 51.2103 79.7462 51.2478 79.0932 51.292C76.5286 51.4657 72.5979 51.7974 70.1993 52.0124C69.707 52.0566 69.2146 52.1006 68.722 52.1447C61.8981 52.755 55.0515 53.3674 48.2479 54.2432C48.1636 53.5349 48.0613 52.848 47.9624 52.2013C47.9422 52.069 47.8179 51.9781 47.6848 51.9982C47.5517 52.0183 47.4602 52.1418 47.4805 52.274C47.5797 52.923 47.6812 53.6059 47.7645 54.3059C47.1396 54.3875 46.5151 54.4714 45.891 54.5578C45.8712 54.5606 45.8054 54.5663 45.7015 54.5753C45.1629 54.6219 43.6003 54.7571 42.1122 55.0286C41.2194 55.1916 40.3241 55.4077 39.6562 55.6938C39.3233 55.8364 39.0297 56.0034 38.8212 56.2028C38.6096 56.405 38.4671 56.6604 38.4947 56.9636C38.5281 57.3307 38.7381 57.6819 39.0055 57.9968C39.2766 58.316 39.6302 58.625 39.9959 58.9087C40.3626 59.1932 40.7493 59.4582 41.0899 59.6875C41.1464 59.7255 41.2014 59.7625 41.2547 59.7982C36.4046 60.5287 28.7211 61.5319 22.7631 62.2619C22.7082 62.2687 22.6534 62.2754 22.5988 62.282C24.0512 62.0318 25.5023 61.7716 26.9524 61.4998C27.4389 61.4087 27.9366 61.3241 28.4402 61.2405C28.4887 61.2635 28.5451 61.2708 28.6015 61.2574C28.7793 61.2153 28.9984 61.1643 29.2445 61.1075C30.5978 60.883 31.9732 60.6431 33.2702 60.2789C33.3667 60.2518 33.4414 60.2298 33.4952 60.2126C33.5218 60.204 33.5458 60.1959 33.566 60.1882L33.5675 60.1876C33.5792 60.1832 33.6173 60.1688 33.6505 60.1444C33.6602 60.1374 33.6865 60.1174 33.7097 60.0834C33.7336 60.0484 33.7777 59.9597 33.7335 59.8535C33.6957 59.7625 33.6198 59.729 33.5986 59.7205C33.57 59.7089 33.5456 59.7053 33.5349 59.7039C33.4976 59.6991 33.4608 59.7031 33.4491 59.7043C33.4107 59.7082 33.3569 59.7166 33.2954 59.7274C33.0452 59.7712 32.555 59.8734 31.9745 59.9992C31.0861 60.1917 29.974 60.4421 29.1531 60.6313C29.0406 60.65 28.9281 60.6685 28.8157 60.6871C28.1609 60.7951 27.5073 60.9029 26.862 61.0239C23.2221 61.7061 19.5748 62.3151 15.9142 62.8786C15.3484 62.9657 14.923 63.0346 14.6255 63.087C14.4768 63.1132 14.3586 63.1355 14.2699 63.1541C14.1887 63.1711 14.1139 63.1886 14.066 63.2073C14.055 63.2116 14.0272 63.2227 13.9988 63.243C13.9857 63.2524 13.954 63.2765 13.9288 63.3188C13.8985 63.3696 13.8762 63.4522 13.9139 63.54C13.945 63.6122 14 63.6465 14.0214 63.6585C14.0469 63.6726 14.0697 63.6795 14.0816 63.6827C14.1063 63.6894 14.1288 63.6917 14.1415 63.6929C14.1914 63.6972 14.2654 63.6951 14.3461 63.6909C14.5176 63.6819 14.7897 63.6593 15.146 63.6251C16.5738 63.4882 19.4174 63.1599 22.8228 62.7427C28.9936 61.9866 37.0226 60.9366 41.8394 60.1995C41.865 60.2182 41.8893 60.2363 41.912 60.2537C42.0683 60.3733 42.266 60.544 42.5 60.7462C42.6476 60.8736 42.8096 61.0136 42.9849 61.1612C43.4287 61.5347 43.9425 61.9433 44.4634 62.2626C44.9784 62.5783 45.531 62.8261 46.0478 62.8414C46.3116 62.8491 46.5701 62.7963 46.8059 62.6581C47.0413 62.5202 47.2387 62.3064 47.3955 62.0165C47.8749 61.1303 48.1565 60.1529 48.3041 59.1396ZM47.8668 58.7222C47.9258 58.2059 47.9518 57.6778 47.9524 57.1445C47.9535 56.3578 47.8998 55.5646 47.8184 54.7874C47.198 54.8685 46.5779 54.9518 45.9583 55.0376C45.9207 55.0428 45.8228 55.0514 45.6765 55.0642C45.0702 55.1175 43.6319 55.2438 42.2003 55.505C41.317 55.6662 40.4654 55.8747 39.8491 56.1386C39.54 56.271 39.3071 56.4104 39.1592 56.5518C39.0143 56.6903 38.9702 56.8103 38.9802 56.9199C39.0002 57.1401 39.1346 57.3977 39.3781 57.6844C39.618 57.9668 39.9419 58.2522 40.2959 58.5269C40.6489 58.8008 41.0241 59.0581 41.3633 59.2865C41.422 59.326 41.4799 59.3648 41.5365 59.4028C41.6899 59.5056 41.8343 59.6025 41.9612 59.6906C42.3854 59.6253 42.783 59.5625 43.1503 59.5028C44.723 59.2472 46.2954 58.9876 47.8668 58.7222ZM42.4908 60.0986C42.7485 60.0582 42.9949 60.0189 43.229 59.9808C44.7522 59.7332 46.2754 59.4819 47.7979 59.2252C47.6514 60.1377 47.3894 61.0047 46.9661 61.7872C46.8431 62.0146 46.7031 62.1561 46.5583 62.2409C46.414 62.3254 46.2495 62.3627 46.0622 62.3572C45.6767 62.3458 45.2144 62.1538 44.7194 61.8504C44.2303 61.5506 43.739 61.1611 43.3001 60.7916C43.1397 60.6567 42.9842 60.5224 42.8383 60.3964C42.7144 60.2895 42.5976 60.1887 42.4908 60.0986ZM33.5052 60.1856C33.5053 60.1857 33.5042 60.1858 33.502 60.1858C33.5041 60.1857 33.5051 60.1856 33.5052 60.1856ZM33.3941 59.7349C33.3967 59.7337 33.3981 59.7331 33.3982 59.7331C33.3983 59.7331 33.3971 59.7337 33.3941 59.7349Z" fill="#191F29"/>
<path fill-rule="evenodd" clip-rule="evenodd" d="M89.7273 84.75H13.2727C11.8167 84.75 10.6364 85.9812 10.6364 87.5V98.5C10.6364 100.019 11.8167 101.25 13.2727 101.25H89.7273C91.1833 101.25 92.3636 100.019 92.3636 98.5V87.5C92.3636 85.9812 91.1833 84.75 89.7273 84.75ZM13.2727 82C10.3607 82 8 84.4624 8 87.5V98.5C8 101.538 10.3607 104 13.2727 104H89.7273C92.6393 104 95 101.538 95 98.5V87.5C95 84.4624 92.6393 82 89.7273 82H13.2727Z" fill="white"/>
</svg>
